<svg xmlns="http://www.w3.org/2000/svg" width="19" height="16" viewBox="0 0 19 16"><g><g><path fill="#fff" d="M13.714 8.571a1.142 1.142 0 1 1 0-2.285 1.142 1.142 0 1 1 0 2.285zm-4.571 0a1.142 1.142 0 1 1 0-2.285 1.142 1.142 0 1 1 0 2.285zm-4.572 0a1.142 1.142 0 1 1 0-2.285 1.142 1.142 0 1 1 0 2.285zM9.143 0C4.093 0 0 3.325 0 7.429 0 9.2.764 10.82 2.036 12.096c-.447 1.8-1.94 3.404-1.957 3.422a.284.284 0 0 0-.054.31.28.28 0 0 0 .26.172c2.369 0 4.144-1.136 5.022-1.836 1.168.44 2.464.693 3.836.693 5.05 0 9.143-3.325 9.143-7.428C18.286 3.325 14.193 0 9.143 0z"/></g></g></svg>