<svg xmlns="http://www.w3.org/2000/svg" width="26" height="26" viewBox="0 0 26 26"><g><g><path fill="#fff" d="M21.65 12.048c-.265.41-.58.786-.935 1.12-.369.348-.767.706-1.196 1.073-.409.348-.757.66-1.043.935a3.804 3.804 0 0 0-.674.844 3.2 3.2 0 0 0-.352.951 6.5 6.5 0 0 0-.108 1.287v1.073H14.46v-1.469a6.216 6.216 0 0 1 .152-1.44c.094-.407.244-.799.445-1.164.2-.356.437-.69.706-.996.276-.317.588-.64.935-.966l1.134-1.073a6.15 6.15 0 0 0 .83-.873h3.357a4.871 4.871 0 0 1-.37.702zm-9.245 2.96a1.982 1.982 0 0 1-1.455-.598 1.911 1.911 0 0 1-.597-1.395 2.016 2.016 0 0 1 2.054-2.023 1.997 1.997 0 0 1 1.472.582c.38.37.591.88.582 1.41a1.99 1.99 0 0 1-.582 1.411 1.943 1.943 0 0 1-1.474.613zm-.99 4.322a6.835 6.835 0 0 1-2.376-.767 6.268 6.268 0 0 1-1.793-1.454 6.136 6.136 0 0 1-1.12-2.008 7.522 7.522 0 0 1-.382-2.42 7.662 7.662 0 0 1 .368-2.407A5.925 5.925 0 0 1 7.2 8.296a5.081 5.081 0 0 1 2.53-1.623v3.374a2.866 2.866 0 0 0-.474.409c-.582.623-.873 1.425-.873 2.406 0 1.022.328 1.84.982 2.454a4.036 4.036 0 0 0 2.39 1.073zm13.248-9.558l-8.435-8.435a4.565 4.565 0 0 0-6.456 0L1.337 9.772a4.565 4.565 0 0 0 0 6.456l8.435 8.435a4.565 4.565 0 0 0 6.456 0l8.435-8.435a4.565 4.565 0 0 0 0-6.456z"/></g></g></svg>