<svg xmlns="http://www.w3.org/2000/svg" width="20" height="16" viewBox="0 0 20 16"><g><g><path fill="#fff" d="M20 14.5v1c0 .275-.225.5-.5.5H.5a.501.501 0 0 1-.5-.5v-1c0-.275.225-.5.5-.5h19c.275 0 .5.225.5.5zm-17-7c0-.275.225-.5.5-.5s.5.225.5.5-.225.5-.5.5a.501.501 0 0 1-.5-.5zm4.75 1c0 .416.334.75.75.75s.75-.334.75-.75a.748.748 0 0 0-.75-.75.748.748 0 0 0-.75.75zm3 3c0 .416.334.75.75.75s.75-.334.75-.75a.748.748 0 0 0-.75-.75.748.748 0 0 0-.75.75zm-9.434-.96c-.275-.415-.238-1.08.312-1.409.231-.137.547-.312.897-.5.987.853 2.469.131 2.475-1.125C6.472 6.953 8.219 6.5 10 6.5c1.41 0 2.79.287 4.037.681-.365 1.653 1.863 2.538 2.741 1.097.669.325 1.225.634 1.597.856.55.328.588.997.313 1.41l-.557.834a1.002 1.002 0 0 1-1.34.306c-.507-.3-1.757-.993-3.291-1.518V13h-7v-2.838a18.729 18.729 0 0 0-3.29 1.52.996.996 0 0 1-1.341-.307zM7.25 2.75A2.754 2.754 0 0 1 10 0a2.754 2.754 0 0 1 2.75 2.75A2.754 2.754 0 0 1 10 5.5a2.754 2.754 0 0 1-2.75-2.75zM15 7.5c0-.275.225-.5.5-.5s.5.225.5.5-.225.5-.5.5a.501.501 0 0 1-.5-.5z"/></g></g></svg>