<svg xmlns="http://www.w3.org/2000/svg" width="20" height="20" viewBox="0 0 20 20"><g><g><path fill="#f8a86b" d="M10.992 8.812a.623.623 0 0 1-.622.562h-.742a.623.623 0 0 1-.62-.562l-.5-5a.627.627 0 0 1 .62-.687h1.742c.372 0 .66.32.622.687zm-.993 4.312c-.691 0-1.25-.558-1.25-1.25 0-.691.56-1.25 1.25-1.25.692 0 1.25.559 1.25 1.25 0 .692-.558 1.25-1.25 1.25zM17.5 0h-15A2.502 2.502 0 0 0 0 2.5v11.25c0 1.378 1.121 2.5 2.5 2.5h3.75v3.28a.47.47 0 0 0 .746.379l4.878-3.66H17.5c1.379 0 2.5-1.121 2.5-2.5V2.5c0-1.378-1.121-2.499-2.5-2.499z"/></g></g></svg>