<svg xmlns="http://www.w3.org/2000/svg" width="16" height="16" viewBox="0 0 16 16"><g><g><path fill="#838eab" d="M11.13 8.565A4.102 4.102 0 0 1 8 10a4.102 4.102 0 0 1-3.132-1.434.494.494 0 0 1 .057-.703.497.497 0 0 1 .703.056A3.11 3.11 0 0 0 7.996 9c.92 0 1.782-.393 2.369-1.084a.501.501 0 1 1 .766.65zM6 4.162a.838.838 0 1 1 0 1.675.838.838 0 0 1 0-1.675zm4 0a.838.838 0 1 1 0 1.675.838.838 0 0 1 0-1.675zM14 0H2C.897 0 0 .897 0 2v9c0 1.102.897 2 2 2h3v2.624c0 .306.35.484.597.303L9.499 13H14c1.103 0 2-.897 2-2V2C16 .898 15.102 0 14 0z"/></g></g></svg>