<svg xmlns="http://www.w3.org/2000/svg" width="20" height="20" viewBox="0 0 20 20"><g><g><path fill="#fb726f" d="M15 6.562c0 .172-.142.313-.313.313H5.312A.313.313 0 0 1 5 6.562v-.625c0-.172.14-.312.312-.312h9.375c.171 0 .312.14.312.312zm-3.75 3.75c0 .172-.141.312-.313.312H5.312A.313.313 0 0 1 5 10.312v-.625c0-.172.14-.313.312-.313h5.625c.172 0 .312.141.312.313zM17.498 0h-15A2.502 2.502 0 0 0 0 2.5v11.25c0 1.378 1.121 2.499 2.5 2.499h3.75v3.281a.47.47 0 0 0 .746.379l4.878-3.66H17.5c1.379 0 2.5-1.121 2.5-2.5V2.5c0-1.378-1.121-2.499-2.5-2.499z"/></g></g></svg>