<svg xmlns="http://www.w3.org/2000/svg" width="14" height="14" viewBox="0 0 14 14"><g><g><path fill="#838eab" d="M14.003 9.75v3.5c0 .416-.334.75-.75.75h-3.5a.751.751 0 0 1-.531-1.281l1.131-1.131L7 8.238 3.65 11.59l1.131 1.128A.751.751 0 0 1 4.25 14H.75a.748.748 0 0 1-.75-.75v-3.5a.751.751 0 0 1 1.281-.531l1.132 1.131L5.766 7 2.412 3.647 1.282 4.78A.751.751 0 0 1 0 4.25V.75C0 .334.334 0 .75 0h3.5c.669 0 1.003.81.531 1.281L3.65 2.413 7 5.763l3.353-3.354-1.131-1.128A.751.751 0 0 1 9.753 0h3.5c.416 0 .75.334.75.75v3.5a.751.751 0 0 1-1.281.531L11.59 3.65 8.238 7l3.353 3.353 1.13-1.131a.75.75 0 0 1 1.282.528z"/></g></g></svg>