<svg xmlns="http://www.w3.org/2000/svg" width="13" height="18" viewBox="0 0 13 18"><g><g><path fill="#fff" d="M3.375 6.188a2.816 2.816 0 0 1 2.813-2.813.563.563 0 0 0 0-1.125A3.942 3.942 0 0 0 2.25 6.188a.563.563 0 0 0 1.125 0zm.594 7.312a.842.842 0 0 1-.787-.539C1.817 9.406 0 9.764 0 6.187a6.188 6.188 0 0 1 12.375 0c0 3.577-1.817 3.219-3.182 6.774a.842.842 0 0 1-.787.539zM9 15.047v.984c0 .368-.235.68-.563.796v.33a.844.844 0 0 1-.843.843H4.78a.844.844 0 0 1-.843-.844v-.33a.844.844 0 0 1-.563-.795v-.984c0-.233.189-.422.422-.422h4.781c.233 0 .422.189.422.422z"/></g></g></svg>