<svg xmlns="http://www.w3.org/2000/svg" width="18" height="14" viewBox="0 0 18 14"><g><g><path fill="#708efa" d="M17.5 7v3.5a.874.874 0 0 1-.875.875h-.875v-5.25h.875c.484 0 .875.391.875.875zm-5.031 0a1.093 1.093 0 1 0-2.187 0 1.093 1.093 0 0 0 2.187 0zm-.219 3.5H10.5v.875h1.75zm-2.625 0h-1.75v.875h1.75zM7.219 7a1.093 1.093 0 1 0-2.187 0 1.093 1.093 0 0 0 2.187 0zM7 10.5H5.25v.875H7zm7.875-5.688v7.438c0 .965-.785 1.75-1.75 1.75h-8.75c-.965 0-1.75-.785-1.75-1.75V4.812c0-1.208.979-2.187 2.188-2.187h3.062V.875a.874.874 0 1 1 1.75 0v1.75h3.063c1.208 0 2.187.979 2.187 2.188zm-14 1.313h.875v5.25H.875A.874.874 0 0 1 0 10.5V7c0-.484.391-.875.875-.875z"/></g></g></svg>