<svg xmlns="http://www.w3.org/2000/svg" width="14" height="14" viewBox="0 0 14 14"><g><g><path fill="#838eab" d="M10.5 2.227c0 1.16-.71 1.81-.91 2.586h2.782c.913 0 1.624.758 1.628 1.588.002.49-.206 1.019-.532 1.345l-.003.003c.27.638.226 1.533-.254 2.173.237.708-.002 1.578-.448 2.044.117.482.061.891-.168 1.22-.558.803-1.941.814-3.111.814h-.078c-1.32 0-2.4-.481-3.27-.868-.435-.194-1.006-.434-1.439-.442a.328.328 0 0 1-.322-.328V6.517c0-.088.035-.172.097-.233C5.555 5.214 6.022 4.08 6.91 3.19c.405-.406.552-1.018.694-1.61C7.725 1.073 7.98 0 8.531 0 9.187 0 10.5.219 10.5 2.227zM2.406 12.25a.656.656 0 1 0-1.312 0 .656.656 0 0 0 1.312 0zM3.5 6.781v6.563a.656.656 0 0 1-.656.656H.656A.656.656 0 0 1 0 13.344V6.78c0-.362.294-.656.656-.656h2.188c.362 0 .656.294.656.656z"/></g></g></svg>