<svg xmlns="http://www.w3.org/2000/svg" width="14" height="14" viewBox="0 0 14 14"><g><g><path fill="#838eab" d="M8.531 14c-.552 0-.806-1.074-.928-1.58-.142-.593-.29-1.205-.694-1.61-.888-.89-1.353-2.023-2.437-3.094a.328.328 0 0 1-.097-.233V1.638c0-.179.143-.325.322-.328.433-.008 1.004-.248 1.44-.443C7.005.481 8.086 0 9.407 0h.077c1.17 0 2.553.011 3.11.813.23.33.287.74.169 1.22.446.467.685 1.337.448 2.045.48.64.523 1.535.254 2.173l.003.003c.326.326.534.854.532 1.345-.004.83-.715 1.589-1.628 1.589H9.59c.2.774.91 1.425.91 2.585C10.5 13.78 9.188 14 8.531 14zM1.75 7.656a.656.656 0 1 0 0-1.312.656.656 0 0 0 0 1.312zM.656.875h2.188c.362 0 .656.294.656.656v6.563a.656.656 0 0 1-.656.656H.656A.656.656 0 0 1 0 8.094V1.53C0 1.17.294.875.656.875z"/></g></g></svg>