<svg xmlns="http://www.w3.org/2000/svg" width="16" height="16" viewBox="0 0 16 16"><g><g><path fill="#fff" d="M7.658 10.58A2.584 2.584 0 0 1 5.078 8a2.584 2.584 0 0 1 2.58-2.58A2.584 2.584 0 0 1 10.238 8a2.584 2.584 0 0 1-2.58 2.58zm6.09-1.448a6.241 6.241 0 0 0 0-2.264l1.375-.794a.388.388 0 0 0 .176-.45 7.988 7.988 0 0 0-1.764-3.052.388.388 0 0 0-.479-.073l-1.373.794a6.18 6.18 0 0 0-1.96-1.134V.573a.388.388 0 0 0-.304-.378 8.064 8.064 0 0 0-3.523 0 .387.387 0 0 0-.302.378v1.586a6.18 6.18 0 0 0-1.96 1.134L2.26 2.499a.388.388 0 0 0-.478.073A7.987 7.987 0 0 0 .018 5.623c-.054.173.019.36.176.451l1.374.794a6.241 6.241 0 0 0 0 2.264l-1.374.794a.388.388 0 0 0-.176.45 7.988 7.988 0 0 0 1.764 3.052.388.388 0 0 0 .478.073l1.374-.794a6.18 6.18 0 0 0 1.96 1.134v1.586c0 .182.126.339.303.378a8.064 8.064 0 0 0 3.523 0 .387.387 0 0 0 .303-.378v-1.586a6.18 6.18 0 0 0 1.96-1.134l1.373.794c.157.09.356.06.479-.073a7.987 7.987 0 0 0 1.764-3.051.388.388 0 0 0-.176-.451l-1.375-.794z"/></g></g></svg>