<svg xmlns="http://www.w3.org/2000/svg" width="21" height="16" viewBox="0 0 21 16"><g><g><path fill="#fff" d="M20.571 10.286c0-2.39-1.91-4.436-4.617-5.29.032.236.046.475.046.718 0 3.782-3.846 6.857-8.571 6.857-.386 0-.761-.028-1.133-.067C7.421 14.557 10.064 16 13.143 16c1.464 0 2.825-.329 3.975-.893.778.454 1.86.893 3.168.893a.286.286 0 0 0 .207-.482c-.01-.01-.8-.864-1.279-1.947.854-.928 1.357-2.06 1.357-3.285zm-5.714-4.572C14.857 2.557 11.532 0 7.43 0 3.325 0 0 2.557 0 5.714 0 6.94.504 8.068 1.357 9 .88 10.079.09 10.936.08 10.946a.284.284 0 0 0-.054.311.28.28 0 0 0 .26.172c1.308 0 2.39-.44 3.169-.893 1.15.56 2.51.893 3.975.893 4.103 0 7.428-2.558 7.428-5.715z"/></g></g></svg>